<svg id="Grupo_520" data-name="Grupo 520" xmlns="http://www.w3.org/2000/svg" width="175.466" height="27.984" viewBox="0 0 175.466 27.984">
  <g id="Grupo_38" data-name="Grupo 38" transform="translate(34.592 6.697)">
    <g id="Grupo_37" data-name="Grupo 37" transform="translate(0)">
      <g id="Grupo_24" data-name="Grupo 24" transform="translate(0 0.166)">
        <path id="Trazado_32" data-name="Trazado 32" d="M1927.277,435.414h-.146l-2.842-8.485h-4.958V441.2h3.361v-9.274h.145l3.091,9.274h2.427l3.07-9.274h.146V441.2h3.485V426.929h-4.917Z" transform="translate(-1919.331 -426.929)" fill="#eef0f3"/>
      </g>
      <g id="Grupo_26" data-name="Grupo 26" transform="translate(32.25)">
        <g id="Grupo_25" data-name="Grupo 25">
          <path id="Trazado_33" data-name="Trazado 33" d="M2092.214,439.787a2.811,2.811,0,0,0,.965-1.338,7.611,7.611,0,0,0,.374-2.1q.073-1.255.072-2.956t-.072-2.956a7.616,7.616,0,0,0-.374-2.1,2.813,2.813,0,0,0-.965-1.338,4.267,4.267,0,0,0-1.815-.705,20.871,20.871,0,0,0-5.871,0,4.182,4.182,0,0,0-1.8.705,2.838,2.838,0,0,0-.954,1.338,7.571,7.571,0,0,0-.373,2.1q-.074,1.255-.073,2.956t.073,2.956a7.566,7.566,0,0,0,.373,2.1,2.837,2.837,0,0,0,.954,1.338,4.175,4.175,0,0,0,1.8.705,17.075,17.075,0,0,0,2.936.207c.544,0,1.043-.015,1.5-.044l1.509,2.264h3.858v-.1l-2.138-3.013Zm-4.751-1.867q-.726,0-1.2-.041a1.351,1.351,0,0,1-.747-.259,1.285,1.285,0,0,1-.394-.705,6.2,6.2,0,0,1-.145-1.328q-.022-.84-.021-2.189t.021-2.189a6.2,6.2,0,0,1,.145-1.328,1.285,1.285,0,0,1,.394-.705,1.354,1.354,0,0,1,.747-.259q.477-.042,1.2-.042.747,0,1.214.042a1.144,1.144,0,0,1,1.141.965,5.728,5.728,0,0,1,.155,1.328q.021.84.021,2.189t-.021,2.189a5.728,5.728,0,0,1-.155,1.328,1.144,1.144,0,0,1-1.141.965Q2088.21,437.92,2087.464,437.92Z" transform="translate(-2081.323 -426.095)" fill="#eef0f3"/>
        </g>
      </g>
      <g id="Grupo_27" data-name="Grupo 27" transform="translate(46.896 0.166)">
        <path id="Trazado_34" data-name="Trazado 34" d="M2162.756,435.538q0,1-.042,1.608a1.941,1.941,0,0,1-.239.913.986.986,0,0,1-.622.4,5.536,5.536,0,0,1-1.235.1,5.453,5.453,0,0,1-1.193-.1,1,1,0,0,1-.643-.4,2,2,0,0,1-.249-.913q-.052-.612-.052-1.608v-8.609h-3.589v7.821q0,1.577.093,2.7a6.757,6.757,0,0,0,.394,1.888,2.571,2.571,0,0,0,.923,1.2,4.291,4.291,0,0,0,1.681.633,17.916,17.916,0,0,0,5.3,0,4.384,4.384,0,0,0,1.681-.633,2.554,2.554,0,0,0,.934-1.2,6.783,6.783,0,0,0,.394-1.888q.093-1.12.093-2.7v-7.821h-3.63Z" transform="translate(-2154.893 -426.929)" fill="#eef0f3"/>
      </g>
      <g id="Grupo_28" data-name="Grupo 28" transform="translate(61.273 0.166)">
        <rect id="Rect치ngulo_7" data-name="Rect치ngulo 7" width="3.61" height="14.273" fill="#eef0f3"/>
      </g>
      <g id="Grupo_29" data-name="Grupo 29" transform="translate(67.849 0.166)">
        <path id="Trazado_35" data-name="Trazado 35" d="M2268.6,434.6h-.1l-4.626-7.676h-3.734V441.2h3.465v-8.361h.1l4.958,8.361h3.382V426.929H2268.6Z" transform="translate(-2260.14 -426.929)" fill="#eef0f3"/>
      </g>
      <g id="Grupo_30" data-name="Grupo 30" transform="translate(94.591 0.166)">
        <path id="Trazado_36" data-name="Trazado 36" d="M2394.465,429.833h3.9V441.2h3.61V429.833h3.921v-2.9h-11.431Z" transform="translate(-2394.465 -426.929)" fill="#eef0f3"/>
      </g>
      <g id="Grupo_32" data-name="Grupo 32" transform="translate(107.868 0.166)">
        <g id="Grupo_31" data-name="Grupo 31">
          <path id="Trazado_37" data-name="Trazado 37" d="M2471.892,434.657a4.053,4.053,0,0,0,.529-1.494,10.8,10.8,0,0,0,.125-1.629,11.1,11.1,0,0,0-.156-1.961,3.363,3.363,0,0,0-.6-1.452,2.694,2.694,0,0,0-1.307-.892,6.98,6.98,0,0,0-2.251-.3h-7.074V441.2h3.61V436.14h2.324c.066,0,.125,0,.184,0l1.787,5.066h3.755l-2.158-5.519A2.544,2.544,0,0,0,2471.892,434.657Zm-3.019-2.126a1.037,1.037,0,0,1-.27.581,1.2,1.2,0,0,1-.633.29,6.123,6.123,0,0,1-1.13.083h-2.075v-3.817h2.075a6.455,6.455,0,0,1,1.172.083,1.141,1.141,0,0,1,.622.29,1.01,1.01,0,0,1,.249.571,7.1,7.1,0,0,1,.052.965A6.02,6.02,0,0,1,2468.874,432.53Z" transform="translate(-2461.156 -426.929)" fill="#eef0f3"/>
        </g>
      </g>
      <g id="Grupo_33" data-name="Grupo 33" transform="translate(121.809 0.166)">
        <rect id="Rect치ngulo_8" data-name="Rect치ngulo 8" width="3.61" height="14.273" fill="#eef0f3"/>
      </g>
      <g id="Grupo_34" data-name="Grupo 34" transform="translate(127.203 0.166)">
        <path id="Trazado_38" data-name="Trazado 38" d="M2567.362,433.962l4.522-7.033h-3.941l-2.676,4.336h-.187l-2.635-4.336h-4.087l4.5,7.116-4.585,7.157h3.921l2.738-4.46h.208l2.718,4.46h4.087Z" transform="translate(-2558.275 -426.929)" fill="#eef0f3"/>
      </g>
      <g id="Grupo_35" data-name="Grupo 35" transform="translate(17.369 0.166)">
        <path id="Trazado_39" data-name="Trazado 39" d="M2016.017,426.929H2011.1l-4.523,14.273h3.547l3.3-11.182h.145l3.34,11.182h3.651Z" transform="translate(-2006.578 -426.929)" fill="#eef0f3"/>
      </g>
      <g id="Grupo_36" data-name="Grupo 36" transform="translate(81.417 0.166)">
        <path id="Trazado_40" data-name="Trazado 40" d="M2337.73,426.929h-4.917l-4.523,14.273h3.548l3.3-11.182h.145l3.34,11.182h3.651Z" transform="translate(-2328.291 -426.929)" fill="#eef0f3"/>
      </g>
    </g>
  </g>
  <g id="Grupo_43" data-name="Grupo 43" transform="translate(0 0)">
    <g id="Grupo_39" data-name="Grupo 39" transform="translate(17.296 9.036)">
      <path id="Trazado_41" data-name="Trazado 41" d="M1839.137,449.947l-6.684-3.859V441.7l6.684-3.859,1.812,3.138-4.872,2.813v.2l4.872,2.813Z" transform="translate(-1832.453 -437.843)" fill="#ffd140"/>
    </g>
    <g id="Grupo_40" data-name="Grupo 40" transform="translate(0 9.036)">
      <path id="Trazado_42" data-name="Trazado 42" d="M1747.388,449.947l-1.812-3.138,4.871-2.813v-.2l-4.871-2.813,1.812-3.138,6.683,3.859v4.387Z" transform="translate(-1745.576 -437.843)" fill="#ffd140"/>
    </g>
    <g id="Grupo_41" data-name="Grupo 41" transform="translate(4.85)">
      <path id="Trazado_43" data-name="Trazado 43" d="M1780.081,403.142h-4.2l-5.947-8.632,2.984-2.056,4.866,7.064h.391l4.866-7.064,2.984,2.056Z" transform="translate(-1769.935 -392.454)" fill="#ffd140"/>
    </g>
    <g id="Grupo_42" data-name="Grupo 42" transform="translate(6.843 19.489)">
      <path id="Trazado_44" data-name="Trazado 44" d="M1788.916,498.842l-2.812-4.872h-.2l-2.812,4.872-3.138-1.812,3.859-6.683h4.387l3.859,6.683Z" transform="translate(-1779.95 -490.347)" fill="#ffd140"/>
    </g>
  </g>
</svg>
