<svg id="Grupo_58279" data-name="Grupo 58279" xmlns="http://www.w3.org/2000/svg" width="243.998" height="38.914" viewBox="0 0 243.998 38.914">
  <g id="Grupo_38" data-name="Grupo 38" transform="translate(48.102 9.313)">
    <g id="Grupo_37" data-name="Grupo 37" transform="translate(0)">
      <g id="Grupo_24" data-name="Grupo 24" transform="translate(0 0.231)">
        <path id="Trazado_32" data-name="Trazado 32" d="M1930.38,438.728h-.2l-3.952-11.8h-6.9v19.848h4.674v-12.9h.2l4.3,12.9h3.375l4.27-12.9h.2v12.9h4.846V426.929h-6.837Z" transform="translate(-1919.331 -426.929)" fill="#001343"/>
      </g>
      <g id="Grupo_26" data-name="Grupo 26" transform="translate(44.846)">
        <g id="Grupo_25" data-name="Grupo 25">
          <path id="Trazado_33" data-name="Trazado 33" d="M2096.468,445.135a3.908,3.908,0,0,0,1.342-1.861,10.569,10.569,0,0,0,.519-2.913q.1-1.746.1-4.111t-.1-4.111a10.577,10.577,0,0,0-.519-2.914,3.91,3.91,0,0,0-1.342-1.861,5.934,5.934,0,0,0-2.524-.981,29.029,29.029,0,0,0-8.164,0,5.811,5.811,0,0,0-2.509.981,3.945,3.945,0,0,0-1.327,1.861,10.515,10.515,0,0,0-.519,2.914q-.1,1.746-.1,4.111t.1,4.111a10.507,10.507,0,0,0,.519,2.913,3.943,3.943,0,0,0,1.327,1.861,5.8,5.8,0,0,0,2.509.981,23.756,23.756,0,0,0,4.082.288c.757,0,1.45-.021,2.084-.061l2.1,3.148h5.365v-.144l-2.974-4.19Zm-6.606-2.6q-1.01,0-1.673-.058a1.878,1.878,0,0,1-1.039-.36,1.785,1.785,0,0,1-.547-.981,8.6,8.6,0,0,1-.2-1.846q-.03-1.168-.029-3.044t.029-3.044a8.6,8.6,0,0,1,.2-1.846,1.785,1.785,0,0,1,.547-.981,1.882,1.882,0,0,1,1.039-.36q.663-.058,1.673-.058,1.039,0,1.688.058a1.591,1.591,0,0,1,1.587,1.341,7.946,7.946,0,0,1,.216,1.846q.03,1.168.03,3.044t-.03,3.044a7.948,7.948,0,0,1-.216,1.846,1.592,1.592,0,0,1-1.587,1.341Q2090.9,442.539,2089.862,442.539Z" transform="translate(-2081.323 -426.095)" fill="#001343"/>
        </g>
      </g>
      <g id="Grupo_27" data-name="Grupo 27" transform="translate(65.213 0.231)">
        <path id="Trazado_34" data-name="Trazado 34" d="M2165.827,438.9q0,1.385-.058,2.236a2.7,2.7,0,0,1-.332,1.269,1.37,1.37,0,0,1-.865.563,7.7,7.7,0,0,1-1.717.144,7.585,7.585,0,0,1-1.659-.144,1.387,1.387,0,0,1-.895-.563,2.793,2.793,0,0,1-.346-1.269q-.072-.851-.072-2.236V426.929h-4.991V437.8q0,2.193.13,3.75a9.388,9.388,0,0,0,.548,2.625,3.577,3.577,0,0,0,1.283,1.673,5.967,5.967,0,0,0,2.338.88,24.911,24.911,0,0,0,7.37,0,6.1,6.1,0,0,0,2.337-.88,3.548,3.548,0,0,0,1.3-1.673,9.44,9.44,0,0,0,.548-2.625q.129-1.558.129-3.75V426.929h-5.048Z" transform="translate(-2154.893 -426.929)" fill="#001343"/>
      </g>
      <g id="Grupo_28" data-name="Grupo 28" transform="translate(85.204 0.231)">
        <rect id="Rect치ngulo_7" data-name="Rect치ngulo 7" width="5.02" height="19.848" fill="#001343"/>
      </g>
      <g id="Grupo_29" data-name="Grupo 29" transform="translate(94.349 0.231)">
        <path id="Trazado_35" data-name="Trazado 35" d="M2271.91,437.6h-.144l-6.433-10.674h-5.193v19.848h4.818V435.151h.144L2272,446.777h4.7V426.929h-4.789Z" transform="translate(-2260.14 -426.929)" fill="#001343"/>
      </g>
      <g id="Grupo_30" data-name="Grupo 30" transform="translate(131.536 0.231)">
        <path id="Trazado_36" data-name="Trazado 36" d="M2394.466,430.968h5.423v15.809h5.02V430.968h5.452v-4.039h-15.9Z" transform="translate(-2394.466 -426.929)" fill="#001343"/>
      </g>
      <g id="Grupo_32" data-name="Grupo 32" transform="translate(149.998 0.231)">
        <g id="Grupo_31" data-name="Grupo 31">
          <path id="Trazado_37" data-name="Trazado 37" d="M2476.085,437.675a5.632,5.632,0,0,0,.736-2.077,15.083,15.083,0,0,0,.173-2.265,15.459,15.459,0,0,0-.217-2.726,4.668,4.668,0,0,0-.837-2.019,3.743,3.743,0,0,0-1.817-1.241,9.7,9.7,0,0,0-3.13-.418h-9.838v19.848h5.019v-7.039h3.231c.093,0,.173,0,.256,0l2.484,7.044h5.222l-3-7.674A3.538,3.538,0,0,0,2476.085,437.675Zm-4.2-2.957a1.446,1.446,0,0,1-.375.807,1.665,1.665,0,0,1-.88.4,8.518,8.518,0,0,1-1.571.116h-2.885v-5.308h2.885a8.975,8.975,0,0,1,1.63.115,1.586,1.586,0,0,1,.865.4,1.4,1.4,0,0,1,.346.794,9.811,9.811,0,0,1,.073,1.341A8.4,8.4,0,0,1,2471.888,434.718Z" transform="translate(-2461.156 -426.929)" fill="#001343"/>
        </g>
      </g>
      <g id="Grupo_33" data-name="Grupo 33" transform="translate(169.384 0.231)">
        <rect id="Rect치ngulo_8" data-name="Rect치ngulo 8" width="5.02" height="19.848" fill="#001343"/>
      </g>
      <g id="Grupo_34" data-name="Grupo 34" transform="translate(176.885 0.231)">
        <path id="Trazado_38" data-name="Trazado 38" d="M2570.911,436.709l6.289-9.779h-5.481L2568,432.958h-.26l-3.664-6.029h-5.683l6.261,9.9-6.376,9.953h5.452l3.808-6.2h.289l3.779,6.2h5.683Z" transform="translate(-2558.276 -426.929)" fill="#001343"/>
      </g>
      <g id="Grupo_35" data-name="Grupo 35" transform="translate(24.153 0.231)">
        <path id="Trazado_39" data-name="Trazado 39" d="M2019.7,426.929h-6.837l-6.289,19.848h4.933l4.587-15.549h.2l4.645,15.549h5.077Z" transform="translate(-2006.578 -426.929)" fill="#001343"/>
      </g>
      <g id="Grupo_36" data-name="Grupo 36" transform="translate(113.216 0.231)">
        <path id="Trazado_40" data-name="Trazado 40" d="M2341.417,426.929h-6.837l-6.289,19.848h4.933l4.587-15.549h.2l4.644,15.549h5.077Z" transform="translate(-2328.291 -426.929)" fill="#001343"/>
      </g>
    </g>
  </g>
  <g id="Grupo_43" data-name="Grupo 43" transform="translate(0 0)">
    <g id="Grupo_39" data-name="Grupo 39" transform="translate(24.051 12.565)">
      <path id="Trazado_41" data-name="Trazado 41" d="M1841.747,454.675l-9.294-5.366v-6.1l9.294-5.366,2.519,4.364-6.774,3.911v.282l6.774,3.911Z" transform="translate(-1832.453 -437.843)" fill="#ffd140"/>
    </g>
    <g id="Grupo_40" data-name="Grupo 40" transform="translate(0 12.565)">
      <path id="Trazado_42" data-name="Trazado 42" d="M1748.1,454.675l-2.52-4.364,6.774-3.911v-.282l-6.774-3.911,2.52-4.364,9.294,5.366v6.1Z" transform="translate(-1745.576 -437.843)" fill="#ffd140"/>
    </g>
    <g id="Grupo_41" data-name="Grupo 41" transform="translate(6.744)">
      <path id="Trazado_43" data-name="Trazado 43" d="M1784.043,407.317H1778.2l-8.269-12,4.15-2.859,6.767,9.823h.543l6.767-9.823,4.149,2.859Z" transform="translate(-1769.935 -392.454)" fill="#ffd140"/>
    </g>
    <g id="Grupo_42" data-name="Grupo 42" transform="translate(9.516 27.1)">
      <path id="Trazado_44" data-name="Trazado 44" d="M1792.418,502.16l-3.911-6.774h-.282l-3.911,6.774-4.364-2.52,5.366-9.294h6.1l5.366,9.294Z" transform="translate(-1779.95 -490.347)" fill="#ffd140"/>
    </g>
  </g>
</svg>
